<svg xmlns="http://www.w3.org/2000/svg" width="72.418" height="69.114" viewBox="0 0 72.418 69.114">
<path id="Star" d="M1032.02-630.427a1.194,1.194,0,0,1,1.13-.825,1.2,1.2,0,0,1,1.14.825c2.05,6.329,6.29,19.355,7.41,22.821a1.256,1.256,0,0,0,1.19.864h24a1.194,1.194,0,0,1,1.13.824,1.19,1.19,0,0,1-.43,1.335c-5.38,3.911-16.46,11.962-19.41,14.1a1.26,1.26,0,0,0-.46,1.4c1.13,3.467,5.36,16.493,7.42,22.821a1.194,1.194,0,0,1-.44,1.335,1.188,1.188,0,0,1-1.4,0c-5.38-3.911-16.46-11.962-19.41-14.1a1.252,1.252,0,0,0-1.47,0c-2.95,2.142-14.03,10.193-19.41,14.1a1.2,1.2,0,0,1-1.41,0,1.19,1.19,0,0,1-.43-1.335c2.06-6.328,6.29-19.354,7.41-22.821a1.24,1.24,0,0,0-.45-1.4c-2.95-2.142-14.03-10.193-19.412-14.1a1.193,1.193,0,0,1-.434-1.335,1.194,1.194,0,0,1,1.135-.824h23.991a1.237,1.237,0,0,0,1.19-.864C1025.73-611.072,1029.96-624.1,1032.02-630.427Z" transform="translate(-996.943 632.502)" fill="none" stroke="#ff5e5e" stroke-linecap="round" stroke-linejoin="round" stroke-width="2.5"></path>
</svg>